<svg width="400" height="374" viewBox="0 0 400 374" fill="none" xmlns="http://www.w3.org/2000/svg">
<path d="M0 4C0 1.79086 1.79086 0 4 0H389.566C393.234 0 394.968 4.52333 392.24 6.97484L356.641 38.9748C355.906 39.6349 354.954 40 353.966 40H47.2864C46.4499 40 45.6344 40.2622 44.9548 40.7498L6.33164 68.4577C3.685 70.3564 0 68.4648 0 65.2076V4Z" fill="black"/>
<path d="M400 370C400 372.209 398.209 374 396 374H10.4337C6.7665 374 5.03233 369.477 7.75963 367.025L43.3596 335.025C44.0939 334.365 45.0463 334 46.0336 334H352.714C353.55 334 354.366 333.738 355.045 333.25L393.668 305.542C396.315 303.644 400 305.535 400 308.792V370Z" fill="black"/>
<path d="M15 91.5744C11.7846 89.3377 13.3674 84.2908 17.2843 84.2908H253.5C257.03 84.2908 258.829 88.5298 256.378 91.0692L221.019 133.81C220.241 134.616 219.161 135.058 218.041 135.03L81.9974 131.605C81.2153 131.585 80.4561 131.336 79.8138 130.89L15 91.5744Z" fill="black"/>
<path d="M368.523 285.165C371.738 287.402 370.156 292.449 366.239 292.449H149.916C146.386 292.449 139.315 286.99 141.767 284.45L176.275 248.5C177.053 247.694 183.13 248.972 184.25 249L320.294 252.419C321.076 252.439 321.835 252.687 322.478 253.134L368.523 285.165Z" fill="black"/>
<path d="M32 321C31.0834 324.919 34.654 327.846 37.5 325L217 138C218.449 136.551 222.803 132.628 221.543 131.091C221.328 130.828 221.014 130.662 220.762 130.435L207.5 118.5L194.596 110.055C194.366 109.904 194.157 109.725 193.944 109.552C192.372 108.273 190.057 108.365 188.593 109.828L55.5717 242.85C55.0444 243.377 54.675 244.041 54.5052 244.768L32 321Z" fill="black"/>
<path d="M370.202 51.702C371.119 47.7829 367.548 45.356 364.702 48.202L179.5 244.5C177.938 246.062 174.438 249.938 176 251.5L200.127 271.281C201.69 272.844 210.972 266.429 212.534 264.867L345.556 131.845C346.083 131.318 346.453 130.654 346.622 129.928L370.202 51.702Z" fill="black"/>
</svg>
